HIERARCHY
ROOT ui
{
	 OFFSET 0 0 0
	 CHANNELS 3 XPosition YPosition Z Position
	 EndSite
	 {
	 OFFSET 0 -1 0
	 }
}
ROOT li
{
	 OFFSET 0 0 0
	 CHANNELS 3 XPosition YPosition Z Position
	 EndSite
	 {
	 OFFSET 0 -1 0
	 }
}
ROOT ul
{
	 OFFSET 0 0 0
	 CHANNELS 3 XPosition YPosition Z Position
	 EndSite
	 {
	 OFFSET 0 -1 0
	 }
}
ROOT ll
{
	 OFFSET 0 0 0
	 CHANNELS 3 XPosition YPosition Z Position
	 EndSite
	 {
	 OFFSET 0 -1 0
	 }
}
ROOT tt
{
	 OFFSET 0 0 0
	 CHANNELS 3 XPosition YPosition Z Position
	 EndSite
	 {
	 OFFSET 0 -1 0
	 }
}
ROOT tb
{
	 OFFSET 0 0 0
	 CHANNELS 3 XPosition YPosition Z Position
	 EndSite
	 {
	 OFFSET 0 -1 0
	 }
}
ROOT td
{
	 OFFSET 0 0 0
	 CHANNELS 3 XPosition YPosition Z Position
	 EndSite
	 {
	 OFFSET 0 -1 0
	 }
}
ROOT v
{
	 OFFSET 0 0 0
	 CHANNELS 3 XPosition YPosition Z Position
	 EndSite
	 {
	 OFFSET 0 -1 0
	 }
}
ROOT bn
{
	 OFFSET 0 0 0
	 CHANNELS 3 XPosition YPosition Z Position
	 EndSite
	 {
	 OFFSET 0 -1 0
	 }
}
MOTION
Frames: 10
Frame Time: 0.002
6.482099890708923E-4	-3.2549500465393064E-4	0		0.4868356323242187	-2.449215576171875	0		-1.046942626953125	-0.08199167633056641	0		-0.64944873046875	-2.34129931640625	0		1.4997672119140626	-0.57766796875	0		3.09722265625	0.062454170227050784	0		4.5444384765625	0.062109184265136716	0		5.6017490234375	0.07059391784667969	0		-0.2407610626220703	5.85980078125	0		
0.02391131591796875	-7.808229923248291E-4	0		0.4719671630859375	-2.45002734375	0		-1.0746932373046876	-0.08249992370605469	0		-0.6702758178710938	-2.339950439453125	0		1.50105810546875	-0.5748107299804688	0		3.105455810546875	0.06011101531982422	0		4.53583251953125	0.06899235534667969	0		5.599966796875	0.067303955078125	0		-0.24024270629882813	5.85776171875	0		
2.806960046291351E-4	0.0025869300365447996	0		0.5240836791992187	-2.455018310546875	0		-1.03633740234375	-0.08017112731933594	0		-0.67884521484375	-2.32681494140625	0		1.5075361328125	-0.5640435791015626	0		3.132837890625	0.0634322509765625	0		4.53725439453125	0.07470232391357422	0		5.60659912109375	0.08487281036376954	0		-0.212317626953125	5.87624169921875	0		
0.020600677490234375	-8.204290270805359E-4	0		0.47567010498046874	-2.436235107421875	0		-1.047927978515625	-0.07796570587158203	0		-0.64870654296875	-2.334366455078125	0		1.536669189453125	-0.5766790771484375	0		3.105256591796875	0.06572492980957031	0		4.54352685546875	0.06833014678955078	0		5.6049794921875	0.08459087371826172	0		-0.24397930908203125	5.8587646484375	0		
-0.005941942214965821	-3.991439938545227E-4	0		0.5435598754882812	-2.46251220703125	0		-1.04947802734375	-0.07793864440917969	0		-0.6523936767578125	-2.33632177734375	0		1.490245361328125	-0.5679735717773438	0		3.100607177734375	0.059618213653564456	0		4.53302001953125	0.0702633514404297	0		5.59517236328125	0.06946102905273438	0		-0.24526084899902345	5.85875537109375	0		
-0.007398906230926513	-4.198789894580841E-4	0		0.48025442504882815	-2.447458740234375	0		-1.0509383544921875	-0.07791415405273437	0		-0.653951904296875	-2.336314453125	0		1.530544189453125	-0.5808025512695313	0		3.10402783203125	0.05237520599365234	0		4.519568359375	0.07025881958007812	0		5.58372021484375	0.06937497711181641	0		-0.24646385192871093	5.8587451171875	0		
0.01624151611328125	-8.854950070381164E-4	0		0.4896895446777344	-2.453694580078125	0		-1.08238134765625	-0.08235773468017578	0		-0.687274169921875	-2.32874072265625	0		1.49325927734375	-0.575247314453125	0		3.0977998046875	0.059313907623291015	0		4.524072265625	0.061945934295654294	0		5.57751025390625	0.07721137237548828	0		-0.23242042541503907	5.8674658203125	0		
0.01905127143859863	0.00202106499671936	0		0.49038665771484374	-2.4517705078125	0		-1.049490478515625	-0.07494412231445312	0		-0.6526666870117187	-2.332376220703125	0		1.51199072265625	-0.5756828002929687	0		3.09655908203125	0.0591727409362793	0		4.52108154296875	0.07578288269042968	0		5.59039306640625	0.08372338104248046	0		-0.23343592834472657	5.86745361328125	0		
0.01387673568725586	-9.280089735984802E-4	0		0.5042453918457032	-2.4480771484375	0		-1.054667724609375	-0.07785454559326171	0		-0.69186669921875	-2.3316943359375	0		1.4908514404296875	-0.5754005126953124	0		3.095439453125	0.05904043579101562	0		4.52581884765625	0.0674931640625	0		5.5851318359375	0.07557360076904297	0		-0.2201689910888672	5.87718994140625	0		
0.012881502151489258	-9.476159811019898E-4	0		0.46533535766601564	-2.4384345703125	0		-0.983712890625	-0.08112649536132813	0		-0.6339315185546875	-2.33174609375	0		1.52574169921875	-0.5811129760742187	0		3.103408935546875	0.05675692749023437	0		4.53169921875	0.06019836044311523	0		5.58901318359375	0.06827912139892578	0		-0.23514414978027343	5.8674306640625	0		
